<?xml version="1.0" encoding="utf-8"?>
<!-- Generator: Adobe Illustrator 18.0.0, SVG Export Plug-In . SVG Version: 6.00 Build 0)  -->
<!DOCTYPE svg PUBLIC "-//W3C//DTD SVG 1.1//EN" "http://www.w3.org/Graphics/SVG/1.1/DTD/svg11.dtd">
<svg version="1.1" xmlns="http://www.w3.org/2000/svg" xmlns:xlink="http://www.w3.org/1999/xlink" x="0px" y="0px" width="18px"
	 height="44px" viewBox="0 0 18 44" enable-background="new 0 0 18 44" xml:space="preserve">
<g id="FPO">
</g>
<g id="Global_Nav_Small_Icons">
</g>
<g id="Global_Nav_Small_1_">
</g>
<g id="Bag">
</g>
<g id="Global_Nav_Large_Icons">
	<path id="Bag_1_" fill="#FFFFFF" d="M14.5,16H13v-0.499C13,13.339,10.924,12,9,12c-1.924,0-4,1.339-4,3.501V16H3.5
		C2.673,16,2,16.674,2,17.5v10C2,28.328,2.673,29,3.5,29h11c0.827,0,1.5-0.672,1.5-1.5v-10C16,16.674,15.327,16,14.5,16z M6,15.501
		C6,14,7.5,13,9,13c1.5,0,3,1,3,2.501V16H6V15.501z M15,27.5c0,0.277-0.224,0.5-0.5,0.5h-11C3.224,28,3,27.777,3,27.5v-10
		c0-0.276,0.224-0.499,0.5-0.499H5h1h6h1h1.5c0.276,0,0.5,0.223,0.5,0.499V27.5z"/>
</g>
<g id="Global_Nav_Large_1_">
</g>
<g id="Guides">
</g>
<g id="NOTES">
</g>
</svg>
